HIERARCHY
ROOT Hips
{
  OFFSET 379.812 89.8546 199.308
  CHANNELS 6 Xposition Yposition Zposition Zrotation Xrotation Yrotation
  JOINT RightUpLeg
  {
    OFFSET -9.23647 -1.58087 -0.0106892
    CHANNELS 6 Xposition Yposition Zposition Zrotation Xrotation Yrotation
    JOINT RightLeg
    {
      OFFSET 0.0134965 -41.8927 0.0604091
      CHANNELS 6 Xposition Yposition Zposition Zrotation Xrotation Yrotation
      JOINT RightFoot
      {
        OFFSET 1.48051 -42.8092 -0.00783309
        CHANNELS 6 Xposition Yposition Zposition Zrotation Xrotation Yrotation
        End Site
        {
          OFFSET 0 -7.69 17.5
        }
      }
    }
  }
  JOINT LeftUpLeg
  {
    OFFSET 9.33389 -1.62423 0.00865578
    CHANNELS 6 Xposition Yposition Zposition Zrotation Xrotation Yrotation
    JOINT LeftLeg
    {
      OFFSET 0.141563 -41.8655 -0.0153644
      CHANNELS 6 Xposition Yposition Zposition Zrotation Xrotation Yrotation
      JOINT LeftFoot
      {
        OFFSET -3.06875 -40.2367 2.27906
        CHANNELS 6 Xposition Yposition Zposition Zrotation Xrotation Yrotation
        End Site
        {
          OFFSET 0 -7.69 17.5
        }
      }
    }
  }
  JOINT Spine
  {
    OFFSET -0.0215596 14.3034 0.0877385
    CHANNELS 6 Xposition Yposition Zposition Zrotation Xrotation Yrotation
    JOINT Spine1
    {
      OFFSET 0.0203299 9.71904 0.0424096
      CHANNELS 6 Xposition Yposition Zposition Zrotation Xrotation Yrotation
      JOINT Spine2
      {
        OFFSET 0.0381898 10.1144 0.030281
        CHANNELS 6 Xposition Yposition Zposition Zrotation Xrotation Yrotation
        JOINT Spine3
        {
          OFFSET -0.00447327 9.71811 0.0360413
          CHANNELS 6 Xposition Yposition Zposition Zrotation Xrotation Yrotation
          JOINT Neck
          {
            OFFSET -0.0120629 10.3799 0.0594427
            CHANNELS 6 Xposition Yposition Zposition Zrotation Xrotation Yrotation
            JOINT Head
            {
              OFFSET 0.0583155 9.47182 0.0561506
              CHANNELS 6 Xposition Yposition Zposition Zrotation Xrotation Yrotation
              End Site
              {
                OFFSET 0 15.95 0
              }
            }
          }
          JOINT RightShoulder
          {
            OFFSET -3.16243 6.91267 0.0637715
            CHANNELS 6 Xposition Yposition Zposition Zrotation Xrotation Yrotation
            JOINT RightArm
            {
              OFFSET -12.7921 -0.0243452 0.0800232
              CHANNELS 6 Xposition Yposition Zposition Zrotation Xrotation Yrotation
              JOINT RightForeArm
              {
                OFFSET -26.4542 -0.0534222 -0.0134051
                CHANNELS 6 Xposition Yposition Zposition Zrotation Xrotation Yrotation
                JOINT RightHand
                {
                  OFFSET -25.9489 -0.0263489 0.0252124
                  CHANNELS 6 Xposition Yposition Zposition Zrotation Xrotation Yrotation
                  JOINT RightHandThumb1
                  {
                    OFFSET -2.48905 0.190105 3.12053
                    CHANNELS 6 Xposition Yposition Zposition Zrotation Xrotation Yrotation
                    JOINT RightHandThumb2
                    {
                      OFFSET -3.68274 0 0
                      CHANNELS 6 Xposition Yposition Zposition Zrotation Xrotation Yrotation
                      JOINT RightHandThumb3
                      {
                        OFFSET -2.55832 0 0
                        CHANNELS 6 Xposition Yposition Zposition Zrotation Xrotation Yrotation
                        End Site
                        {
                          OFFSET -2.194 0 0
                        }
                      }
                    }
                  }
                  JOINT RightInHandIndex
                  {
                    OFFSET -3.22368 0.508421 1.97842
                    CHANNELS 6 Xposition Yposition Zposition Zrotation Xrotation Yrotation
                    JOINT RightHandIndex1
                    {
                      OFFSET -5.21684 -0.091368 0.999158
                      CHANNELS 6 Xposition Yposition Zposition Zrotation Xrotation Yrotation
                      JOINT RightHandIndex2
                      {
                        OFFSET -3.61937 0 0
                        CHANNELS 6 Xposition Yposition Zposition Zrotation Xrotation Yrotation
                        JOINT RightHandIndex3
                        {
                          OFFSET -2.0521 0 0
                          CHANNELS 6 Xposition Yposition Zposition Zrotation Xrotation Yrotation
                          End Site
                          {
                            OFFSET -1.805 0 0
                          }
                        }
                      }
                    }
                  }
                  JOINT RightInHandMiddle
                  {
                    OFFSET -3.38211 0.517263 0.756737
                    CHANNELS 6 Xposition Yposition Zposition Zrotation Xrotation Yrotation
                    JOINT RightHandMiddle1
                    {
                      OFFSET -5.17411 -0.084 0.313895
                      CHANNELS 6 Xposition Yposition Zposition Zrotation Xrotation Yrotation
                      JOINT RightHandMiddle2
                      {
                        OFFSET -3.94947 0 0
                        CHANNELS 6 Xposition Yposition Zposition Zrotation Xrotation Yrotation
                        JOINT RightHandMiddle3
                        {
                          OFFSET -2.47579 0 0
                          CHANNELS 6 Xposition Yposition Zposition Zrotation Xrotation Yrotation
                          End Site
                          {
                            OFFSET -1.975 0 0
                          }
                        }
                      }
                    }
                  }
                  JOINT RightInHandRing
                  {
                    OFFSET -3.36516 0.537895 -0.128947
                    CHANNELS 6 Xposition Yposition Zposition Zrotation Xrotation Yrotation
                    JOINT RightHandRing1
                    {
                      OFFSET -4.63474 -0.022105 -0.478947
                      CHANNELS 6 Xposition Yposition Zposition Zrotation Xrotation Yrotation
                      JOINT RightHandRing2
                      {
                        OFFSET -3.44238 0 0
                        CHANNELS 6 Xposition Yposition Zposition Zrotation Xrotation Yrotation
                        JOINT RightHandRing3
                        {
                          OFFSET -2.3881 0 0
                          CHANNELS 6 Xposition Yposition Zposition Zrotation Xrotation Yrotation
                          End Site
                          {
                            OFFSET -1.857 0 0
                          }
                        }
                      }
                    }
                  }
                  JOINT RightInHandPinky
                  {
                    OFFSET -3.16105 0.469368 -1.20179
                    CHANNELS 6 Xposition Yposition Zposition Zrotation Xrotation Yrotation
                    JOINT RightHandPinky1
                    {
                      OFFSET -4.14105 -0.022105 -1.09053
                      CHANNELS 6 Xposition Yposition Zposition Zrotation Xrotation Yrotation
                      JOINT RightHandPinky2
                      {
                        OFFSET -2.75653 0 0
                        CHANNELS 6 Xposition Yposition Zposition Zrotation Xrotation Yrotation
                        JOINT RightHandPinky3
                        {
                          OFFSET -1.74189 0 0
                          CHANNELS 6 Xposition Yposition Zposition Zrotation Xrotation Yrotation
                          End Site
                          {
                            OFFSET -1.645 0 0
                          }
                        }
                      }
                    }
                  }
                }
              }
            }
          }
          JOINT LeftShoulder
          {
            OFFSET 3.2224 6.93748 0.0143969
            CHANNELS 6 Xposition Yposition Zposition Zrotation Xrotation Yrotation
            JOINT LeftArm
            {
              OFFSET 12.8146 -0.0174788 -0.0299971
              CHANNELS 6 Xposition Yposition Zposition Zrotation Xrotation Yrotation
              JOINT LeftForeArm
              {
                OFFSET 26.4732 -0.00116244 -0.0462928
                CHANNELS 6 Xposition Yposition Zposition Zrotation Xrotation Yrotation
                JOINT LeftHand
                {
                  OFFSET 25.997 0.006807 0.0061833
                  CHANNELS 6 Xposition Yposition Zposition Zrotation Xrotation Yrotation
                  JOINT LeftHandThumb1
                  {
                    OFFSET 2.48905 0.190105 3.12053
                    CHANNELS 6 Xposition Yposition Zposition Zrotation Xrotation Yrotation
                    JOINT LeftHandThumb2
                    {
                      OFFSET 3.68274 0 0
                      CHANNELS 6 Xposition Yposition Zposition Zrotation Xrotation Yrotation
                      JOINT LeftHandThumb3
                      {
                        OFFSET 2.55832 0 0
                        CHANNELS 6 Xposition Yposition Zposition Zrotation Xrotation Yrotation
                        End Site
                        {
                          OFFSET 2.194 0 0
                        }
                      }
                    }
                  }
                  JOINT LeftInHandIndex
                  {
                    OFFSET 3.22368 0.508421 1.97842
                    CHANNELS 6 Xposition Yposition Zposition Zrotation Xrotation Yrotation
                    JOINT LeftHandIndex1
                    {
                      OFFSET 5.21684 -0.091368 0.999158
                      CHANNELS 6 Xposition Yposition Zposition Zrotation Xrotation Yrotation
                      JOINT LeftHandIndex2
                      {
                        OFFSET 3.61937 0 0
                        CHANNELS 6 Xposition Yposition Zposition Zrotation Xrotation Yrotation
                        JOINT LeftHandIndex3
                        {
                          OFFSET 2.0521 0 0
                          CHANNELS 6 Xposition Yposition Zposition Zrotation Xrotation Yrotation
                          End Site
                          {
                            OFFSET 1.805 0 0
                          }
                        }
                      }
                    }
                  }
                  JOINT LeftInHandMiddle
                  {
                    OFFSET 3.38211 0.517263 0.756737
                    CHANNELS 6 Xposition Yposition Zposition Zrotation Xrotation Yrotation
                    JOINT LeftHandMiddle1
                    {
                      OFFSET 5.17411 -0.084 0.313895
                      CHANNELS 6 Xposition Yposition Zposition Zrotation Xrotation Yrotation
                      JOINT LeftHandMiddle2
                      {
                        OFFSET 3.94947 0 0
                        CHANNELS 6 Xposition Yposition Zposition Zrotation Xrotation Yrotation
                        JOINT LeftHandMiddle3
                        {
                          OFFSET 2.47579 0 0
                          CHANNELS 6 Xposition Yposition Zposition Zrotation Xrotation Yrotation
                          End Site
                          {
                            OFFSET 1.975 0 0
                          }
                        }
                      }
                    }
                  }
                  JOINT LeftInHandRing
                  {
                    OFFSET 3.36516 0.537895 -0.128947
                    CHANNELS 6 Xposition Yposition Zposition Zrotation Xrotation Yrotation
                    JOINT LeftHandRing1
                    {
                      OFFSET 4.63474 -0.022105 -0.478947
                      CHANNELS 6 Xposition Yposition Zposition Zrotation Xrotation Yrotation
                      JOINT LeftHandRing2
                      {
                        OFFSET 3.44238 0 0
                        CHANNELS 6 Xposition Yposition Zposition Zrotation Xrotation Yrotation
                        JOINT LeftHandRing3
                        {
                          OFFSET 2.3881 0 0
                          CHANNELS 6 Xposition Yposition Zposition Zrotation Xrotation Yrotation
                          End Site
                          {
                            OFFSET 1.857 0 0
                          }
                        }
                      }
                    }
                  }
                  JOINT LeftInHandPinky
                  {
                    OFFSET 3.16105 0.469368 -1.20179
                    CHANNELS 6 Xposition Yposition Zposition Zrotation Xrotation Yrotation
                    JOINT LeftHandPinky1
                    {
                      OFFSET 4.14105 -0.022105 -1.09053
                      CHANNELS 6 Xposition Yposition Zposition Zrotation Xrotation Yrotation
                      JOINT LeftHandPinky2
                      {
                        OFFSET 2.75653 0 0
                        CHANNELS 6 Xposition Yposition Zposition Zrotation Xrotation Yrotation
                        JOINT LeftHandPinky3
                        {
                          OFFSET 1.74189 0 0
                          CHANNELS 6 Xposition Yposition Zposition Zrotation Xrotation Yrotation
                          End Site
                          {
                            OFFSET 1.645 0 0
                          }
                        }
                      }
                    }
                  }
                }
              }
            }
          }
        }
      }
    }
  }
}
MOTION
Frames:	3
Frame Time:	0.00833333
377.765 88.2499 174.383 30.2386 12.1885 -70.6777 -9.30203 -1.57289 -0.0297527 -26.6829 -58.8345 -32.1207 -0.050744 -41.8889 0.0374422 -0.853322 23.504 -5.51261 -0.135761 -42.7836 -0.897951 7.98907 8.02353 26.6068 9.25599 -1.62309 -0.00211454 14.7881 -52.9613 2.76857 0.0220781 -41.8823 0.00318305 2.45688 31.2368 3.13663 0.254076 -40.7544 0.529473 -13.9254 -8.87734 -15.8064 0.0381942 14.3021 0.0214663 -7.48508 10.2374 14.962 0.0234188 9.71395 0.00980281 -1.62655 2.76404 3.59754 0.0283542 10.1172 0.00612032 -2.71586 4.50551 5.85355 0.0264552 9.71343 0.0114669 -0.333885 -0.317958 -0.423741 0.0762666 10.3861 0.039885 -0.334245 -0.32151 -0.422236 0.0625643 9.47579 0.0412837 -6.43475 -5.98515 -7.44243 -3.16606 6.93933 0.0271852 0.586413 -11.3353 22.8421 -12.7503 0.0361135 0.0672043 67.7614 -2.84095 51.7319 -26.5082 -0.0656933 0.13822 18.424 -59.3853 9.52117 -25.9889 -0.0664148 0.0142189 15.6915 -15.6298 -18.6105 -2.48905 0.190105 3.12053 28.184 10.7294 19.1592 -3.68274 0 0 4.22858e-15 5.66536e-15 -10 -2.55832 -1.42109e-14 0 1.07404e-14 5.96354e-15 -10 -3.22368 0.508421 1.97842 -3.18055e-15 1.59028e-15 -0 -5.21684 -0.091368 0.999158 19.9818 0.871897 2.3964 -3.61937 0 0 24 1.39149e-15 -1.27222e-14 -2.0521 -7.10543e-15 5.68434e-14 20 3.18055e-15 1.27222e-14 -3.38211 0.517263 0.756737 -3.18055e-15 1.59028e-15 -0 -5.17411 -0.084 0.313895 20 -1.59028e-15 -6.36111e-15 -3.94947 0 -5.68434e-14 24 4.57205e-15 -1.27222e-14 -2.47579 3.55271e-15 0 20 -1.59028e-15 1.59028e-14 -3.36516 0.537895 -0.128947 -3.18055e-15 1.59028e-15 -0 -4.63474 -0.022105 -0.478947 19.9748 -1.02565 -2.81938 -3.44238 1.42109e-14 0 24 4.37326e-15 -0 -2.3881 1.42109e-14 -5.68434e-14 20 9.54166e-15 1.59028e-14 -3.16105 0.469368 -1.20179 -3.18055e-15 1.59028e-15 -0 -4.14105 -0.022105 -1.09053 19.7815 -3.00948 -8.30515 -2.75653 -2.84217e-14 2.84217e-14 24 3.97569e-16 -6.36111e-15 -1.74189 1.42109e-14 0 20 2.38542e-15 3.18055e-15 3.23119 6.91679 -0.0120345 7.83995 -11.5878 -29.0634 12.8468 -0.043492 -0.0518664 -47.1773 25.5309 -66.6273 26.496 -0.0263799 -0.0890364 14.5684 -64.588 14.033 25.999 -0.00633899 -0.0278271 -27.2381 -17.3921 10.1046 2.48905 0.190105 3.12053 -28.184 10.7294 -19.1592 3.68274 2.84217e-14 0 -1.18645e-14 3.18055e-15 10 2.55832 -1.42109e-14 0 -1.45333e-14 0 10 3.22368 0.508421 1.97842 -7.95139e-15 -3.18055e-15 -3.18055e-15 5.21684 -0.091368 0.999158 -19.9818 0.871897 -2.3964 3.61937 0 0 -24 -1.59028e-15 -6.36111e-15 2.0521 3.55271e-15 -2.84217e-14 -20 -3.18055e-15 6.36111e-15 3.38211 0.517263 0.756737 -7.95139e-15 -3.18055e-15 -3.18055e-15 5.17411 -0.084 0.313895 -20 -4.77083e-15 6.36111e-15 3.94947 0 2.84217e-14 -24 1.59028e-15 -3.18055e-15 2.47579 -3.55271e-15 0 -20 0 3.18055e-15 3.36516 0.537895 -0.128947 -7.95139e-15 -3.18055e-15 -3.18055e-15 4.63474 -0.022105 -0.478947 -19.9748 -1.02565 2.81938 3.44238 2.84217e-14 0 -24 3.97569e-16 6.36111e-15 2.3881 3.55271e-15 -2.84217e-14 -20 -4.77083e-15 6.36111e-15 3.16105 0.469368 -1.20179 -7.95139e-15 -3.18055e-15 -3.18055e-15 4.14105 -0.022105 -1.09053 -19.7815 -3.00948 8.30515 2.75653 0 0 -24 6.95746e-16 3.18055e-15 1.74189 3.55271e-15 0 -20 -6.36111e-15 9.54166e-15 
377.763 88.2513 174.377 30.1937 12.1708 -70.6747 -9.30366 -1.56968 -0.0299454 -26.5775 -58.7885 -32.0056 -0.0511865 -41.8891 0.0408735 -0.878964 23.4736 -5.46474 -0.140981 -42.7836 -0.892019 7.99392 8.02482 26.5464 9.25584 -1.62393 -0.00301376 14.842 -52.9095 2.85492 0.0215377 -41.8825 0.00325397 2.40909 31.2762 3.18548 0.257952 -40.7527 0.561673 -13.9175 -8.90977 -15.902 0.0381774 14.3021 0.0319605 -7.43426 10.244 14.861 0.0242375 9.71397 0.0102605 -1.61518 2.76124 3.57266 0.02849 10.1172 0.00481214 -2.69739 4.50011 5.81493 0.0270461 9.71342 0.0113325 -0.335982 -0.3162 -0.416214 0.0775343 10.3856 0.0417122 -0.336347 -0.319825 -0.414715 0.063697 9.4762 0.0427573 -6.45843 -5.95844 -7.30925 -3.16492 6.93877 0.0275588 0.57013 -11.1226 22.753 -12.7504 0.0346592 0.06751 67.781 -2.9492 51.6326 -26.5082 -0.068203 0.133937 19.9833 -59.8262 11.2389 -25.9891 -0.0621516 0.00855708 15.6625 -15.5865 -18.4916 -2.48905 0.190105 3.12053 28.184 10.7294 19.1592 -3.68274 0 5.68434e-14 -6.48445e-16 -3.67752e-15 -10 -2.55832 1.42109e-14 -5.68434e-14 -1.67089e-14 -3.18055e-15 -10 -3.22368 0.508421 1.97842 -1.27222e-14 -4.77083e-15 -3.18055e-15 -5.21684 -0.091368 0.999158 19.9818 0.871897 2.3964 -3.61937 0 5.68434e-14 24 -2.5842e-15 -0 -2.0521 0 5.68434e-14 20 -5.1684e-15 -3.02153e-14 -3.38211 0.517263 0.756737 -1.27222e-14 -4.77083e-15 -3.18055e-15 -5.17411 -0.084 0.313895 20 -4.77083e-15 -3.18055e-15 -3.94947 0 5.68434e-14 24 -9.74045e-15 -3.18055e-15 -2.47579 -7.10543e-15 5.68434e-14 20 -3.97569e-15 -2.54444e-14 -3.36516 0.537895 -0.128947 -1.27222e-14 -4.77083e-15 -3.18055e-15 -4.63474 -0.022105 -0.478947 19.9748 -1.02565 -2.81938 -3.44238 0 0 24 -4.77083e-15 -9.54166e-15 -2.3881 -1.42109e-14 0 20 -5.56597e-15 -2.8625e-14 -3.16105 0.469368 -1.20179 -1.27222e-14 -4.77083e-15 -3.18055e-15 -4.14105 -0.022105 -1.09053 19.7815 -3.00948 -8.30515 -2.75653 0 -5.68434e-14 24 8.34896e-15 -3.18055e-15 -1.74189 2.13163e-14 0 20 -1.27222e-14 -1.59028e-14 3.23213 6.91676 -0.0122492 7.82789 -11.5556 -29.1325 12.8472 -0.0436544 -0.0521162 -47.0838 25.5557 -66.7154 26.4956 -0.0253897 -0.0894158 14.659 -63.8303 14.0682 25.9989 -0.00653758 -0.026747 -27.1384 -17.3566 10.1192 2.48905 0.190105 3.12053 -28.184 10.7294 -19.1592 3.68274 0 -2.84217e-14 1.05399e-15 3.18055e-15 10 2.55832 2.84217e-14 0 -2.6688e-15 -3.18055e-15 10 3.22368 0.508421 1.97842 1.59028e-15 3.18055e-15 -3.18055e-15 5.21684 -0.091368 0.999158 -19.9818 0.871897 -2.3964 3.61937 2.84217e-14 0 -24 4.77083e-15 -3.18055e-15 2.0521 3.55271e-15 0 -20 0 1.27222e-14 3.38211 0.517263 0.756737 1.59028e-15 3.18055e-15 -3.18055e-15 5.17411 -0.084 0.313895 -20 4.77083e-15 9.54166e-15 3.94947 0 0 -24 -3.18055e-15 3.18055e-15 2.47579 -7.10543e-15 0 -20 -4.77083e-15 -3.18055e-15 3.36516 0.537895 -0.128947 1.59028e-15 3.18055e-15 -3.18055e-15 4.63474 -0.022105 -0.478947 -19.9748 -1.02565 2.81938 3.44238 0 0 -24 4.37326e-15 -3.18055e-15 2.3881 1.42109e-14 0 -20 -1.59028e-15 -3.18055e-15 3.16105 0.469368 -1.20179 1.59028e-15 3.18055e-15 -3.18055e-15 4.14105 -0.022105 -1.09053 -19.7815 -3.00948 8.30515 2.75653 0 2.84217e-14 -24 4.87022e-15 3.18055e-15 1.74189 7.10543e-15 2.84217e-14 -20 -3.18055e-15 3.18055e-15 
377.76 88.2527 174.37 30.1401 12.1572 -70.6849 -9.30536 -1.56797 -0.0301439 -26.4357 -58.7408 -31.8582 -0.0513697 -41.8892 0.0426613 -0.90691 23.447 -5.40732 -0.148821 -42.7837 -0.876678 7.99989 8.01522 26.4784 9.25564 -1.62483 -0.00399004 14.9278 -52.8425 2.95512 0.0214438 -41.8827 0.00329586 2.34478 31.3257 3.25095 0.25761 -40.7505 0.601939 -13.9149 -8.95179 -16.0001 0.0381442 14.3021 0.0439664 -7.38151 10.2511 14.7603 0.0250579 9.71398 0.0107113 -1.60331 2.75841 3.54796 0.0286246 10.1172 0.00349319 -2.6781 4.49457 5.77665 0.0276111 9.71341 0.011198 -0.338425 -0.314392 -0.408159 0.0788154 10.3852 0.0436237 -0.338794 -0.317865 -0.406655 0.0645546 9.47661 0.0444837 -6.48271 -5.92809 -7.16676 -3.16385 6.9382 0.0279156 0.565508 -10.906 22.6623 -12.7506 0.0327668 0.0677879 67.8188 -3.06769 51.5402 -26.5083 -0.0706892 0.114364 21.702 -60.1652 13.1384 -25.9893 -0.0487623 0.00141744 15.5805 -15.6135 -18.3956 -2.48905 0.190105 3.12053 28.184 10.7294 19.1592 -3.68274 0 0 5.49972e-15 -5.44173e-15 -10 -2.55832 1.42109e-14 -5.68434e-14 -8.41226e-16 -4.77083e-15 -10 -3.22368 0.508421 1.97842 4.41391e-32 1.59028e-15 -1.59028e-15 -5.21684 -0.091368 0.999158 19.9818 0.871897 2.3964 -3.61937 1.42109e-14 0 24 5.96354e-16 -1.59028e-15 -2.0521 3.55271e-15 5.68434e-14 20 -1.98785e-15 -2.54444e-14 -3.38211 0.517263 0.756737 4.41391e-32 1.59028e-15 -1.59028e-15 -5.17411 -0.084 0.313895 20 -2.38542e-15 7.95139e-15 -3.94947 1.42109e-14 0 24 -1.98785e-15 -3.18055e-15 -2.47579 0 0 20 -4.77083e-15 -2.8625e-14 -3.36516 0.537895 -0.128947 4.41391e-32 1.59028e-15 -1.59028e-15 -4.63474 -0.022105 -0.478947 19.9748 -1.02565 -2.81938 -3.44238 -2.84217e-14 0 24 -1.59028e-15 -0 -2.3881 7.10543e-15 -5.68434e-14 20 1.59028e-15 -2.8625e-14 -3.16105 0.469368 -1.20179 4.41391e-32 1.59028e-15 -1.59028e-15 -4.14105 -0.022105 -1.09053 19.7815 -3.00948 -8.30515 -2.75653 1.42109e-14 0 24 1.59028e-15 -0 -1.74189 1.42109e-14 -5.68434e-14 20 3.18055e-15 -0 3.23307 6.91672 -0.0124651 7.80965 -11.535 -29.2089 12.8475 -0.0438066 -0.0524256 -46.9809 25.5921 -66.8001 26.4952 -0.0244187 -0.0897443 14.7689 -63.047 14.1304 25.9989 -0.00992911 -0.0211037 -27.0382 -17.2614 10.1572 2.48905 0.190105 3.12053 -28.184 10.7294 -19.1592 3.68274 1.42109e-14 -2.84217e-14 -9.7565e-15 9.54166e-15 10 2.55832 0 0 -1.12164e-15 6.36111e-15 10 3.22368 0.508421 1.97842 -3.18055e-15 0 3.18055e-15 5.21684 -0.091368 0.999158 -19.9818 0.871897 -2.3964 3.61937 0 0 -24 1.59028e-15 6.36111e-15 2.0521 3.55271e-15 -2.84217e-14 -20 -2.38542e-15 3.18055e-15 3.38211 0.517263 0.756737 -3.18055e-15 0 3.18055e-15 5.17411 -0.084 0.313895 -20 1.59028e-15 6.36111e-15 3.94947 -2.84217e-14 0 -24 3.18055e-15 9.54166e-15 2.47579 -7.10543e-15 2.84217e-14 -20 -2.38542e-15 1.27222e-14 3.36516 0.537895 -0.128947 -3.18055e-15 0 3.18055e-15 4.63474 -0.022105 -0.478947 -19.9748 -1.02565 2.81938 3.44238 2.84217e-14 -2.84217e-14 -24 3.97569e-16 -0 2.3881 -1.42109e-14 -2.84217e-14 -20 0 3.18055e-15 3.16105 0.469368 -1.20179 -3.18055e-15 0 3.18055e-15 4.14105 -0.022105 -1.09053 -19.7815 -3.00948 8.30515 2.75653 0 0 -24 3.45388e-15 3.18055e-15 1.74189 1.42109e-14 0 -20 -1.59028e-15 9.54166e-15 
